<svg class="marks" width="563" height="1239" viewBox="0 0 563 1239" version="1.1" xmlns="http://www.w3.org/2000/svg" xmlns:xlink="http://www.w3.org/1999/xlink"><g transform="translate(50,22)"><g class="mark-group role-frame root"><g transform="translate(0,0)"><path class="background" d="M0.5,0.5h400v1180h-400Z" style="fill: none; stroke: #ddd;"></path><g><g class="mark-group role-axis"><g transform="translate(0.5,1180.5)"><path class="background" d="M0,0h0v0h0Z" style="pointer-events: none; fill: none;"></path><g><g class="mark-rule role-axis-grid" style="pointer-events: none;"><line transform="translate(71,0)" x2="0" y2="-1180" style="fill: none; stroke: #ddd; stroke-width: 1; opacity: 1;"></line><line transform="translate(144,0)" x2="0" y2="-1180" style="fill: none; stroke: #ddd; stroke-width: 1; opacity: 1;"></line><line transform="translate(215,0)" x2="0" y2="-1180" style="fill: none; stroke: #ddd; stroke-width: 1; opacity: 1;"></line><line transform="translate(289,0)" x2="0" y2="-1180" style="fill: none; stroke: #ddd; stroke-width: 1; opacity: 1;"></line><line transform="translate(362,0)" x2="0" y2="-1180" style="fill: none; stroke: #ddd; stroke-width: 1; opacity: 1;"></line></g></g></g></g><g class="mark-rect role-mark layer_0_marks"><path d="M0,140h400v20h-400Z" style="fill: rgb(252, 165, 112);"></path><path d="M0,140h400v20h-400Z" style="fill: rgb(252, 165, 112);"></path><path d="M0,300h400v20h-400Z" style="fill: rgb(252, 165, 112);"></path><path d="M0,300h400v20h-400Z" style="fill: rgb(252, 165, 112);"></path><path d="M0,340h400v20h-400Z" style="fill: rgb(252, 165, 112);"></path><path d="M0,340h400v20h-400Z" style="fill: rgb(252, 165, 112);"></path><path d="M0,460h400v20h-400Z" style="fill: rgb(246, 125, 83);"></path><path d="M0,460h400v20h-400Z" style="fill: rgb(246, 125, 83);"></path><path d="M0,460h400v20h-400Z" style="fill: rgb(246, 125, 83);"></path><path d="M0,460h400v20h-400Z" style="fill: rgb(246, 125, 83);"></path><path d="M0,460h400v20h-400Z" style="fill: rgb(246, 125, 83);"></path><path d="M0,480h400v20h-400Z" style="fill: rgb(252, 165, 112);"></path><path d="M0,480h400v20h-400Z" style="fill: rgb(252, 165, 112);"></path><path d="M0,700h400v20h-400Z" style="fill: rgb(246, 125, 83);"></path><path d="M0,700h400v20h-400Z" style="fill: rgb(246, 125, 83);"></path><path d="M0,700h400v20h-400Z" style="fill: rgb(246, 125, 83);"></path><path d="M0,760h400v20h-400Z" style="fill: rgb(246, 125, 83);"></path><path d="M0,760h400v20h-400Z" style="fill: rgb(246, 125, 83);"></path><path d="M0,760h400v20h-400Z" style="fill: rgb(246, 125, 83);"></path><path d="M0,760h400v20h-400Z" style="fill: rgb(246, 125, 83);"></path><path d="M0,800h400v20h-400Z" style="fill: rgb(246, 125, 83);"></path><path d="M0,800h400v20h-400Z" style="fill: rgb(246, 125, 83);"></path><path d="M0,840h400v20h-400Z" style="fill: rgb(246, 125, 83);"></path><path d="M0,840h400v20h-400Z" style="fill: rgb(246, 125, 83);"></path><path d="M0,860h400v20h-400Z" style="fill: rgb(204, 36, 24);"></path><path d="M0,860h400v20h-400Z" style="fill: rgb(204, 36, 24);"></path><path d="M0,860h400v20h-400Z" style="fill: rgb(204, 36, 24);"></path><path d="M0,860h400v20h-400Z" style="fill: rgb(204, 36, 24);"></path><path d="M0,860h400v20h-400Z" style="fill: rgb(204, 36, 24);"></path><path d="M0,860h400v20h-400Z" style="fill: rgb(204, 36, 24);"></path><path d="M0,860h400v20h-400Z" style="fill: rgb(204, 36, 24);"></path><path d="M0,860h400v20h-400Z" style="fill: rgb(204, 36, 24);"></path><path d="M0,860h400v20h-400Z" style="fill: rgb(204, 36, 24);"></path><path d="M0,860h400v20h-400Z" style="fill: rgb(204, 36, 24);"></path><path d="M0,860h400v20h-400Z" style="fill: rgb(204, 36, 24);"></path><path d="M0,920h400v20h-400Z" style="fill: rgb(246, 125, 83);"></path><path d="M0,920h400v20h-400Z" style="fill: rgb(246, 125, 83);"></path><path d="M0,920h400v20h-400Z" style="fill: rgb(246, 125, 83);"></path><path d="M0,1000h400v20h-400Z" style="fill: rgb(246, 125, 83);"></path><path d="M0,1000h400v20h-400Z" style="fill: rgb(246, 125, 83);"></path><path d="M0,1000h400v20h-400Z" style="fill: rgb(246, 125, 83);"></path><path d="M0,1020h400v20h-400Z" style="fill: rgb(246, 125, 83);"></path><path d="M0,1020h400v20h-400Z" style="fill: rgb(246, 125, 83);"></path><path d="M0,1060h400v20h-400Z" style="fill: rgb(246, 125, 83);"></path><path d="M0,1060h400v20h-400Z" style="fill: rgb(246, 125, 83);"></path><path d="M0,1060h400v20h-400Z" style="fill: rgb(246, 125, 83);"></path><path d="M0,1060h400v20h-400Z" style="fill: rgb(246, 125, 83);"></path><path d="M0,1060h400v20h-400Z" style="fill: rgb(246, 125, 83);"></path><path d="M0,1100h400v20h-400Z" style="fill: rgb(230, 82, 56);"></path><path d="M0,1100h400v20h-400Z" style="fill: rgb(230, 82, 56);"></path><path d="M0,1100h400v20h-400Z" style="fill: rgb(230, 82, 56);"></path><path d="M0,1100h400v20h-400Z" style="fill: rgb(230, 82, 56);"></path><path d="M0,1100h400v20h-400Z" style="fill: rgb(230, 82, 56);"></path><path d="M0,1100h400v20h-400Z" style="fill: rgb(230, 82, 56);"></path><path d="M0,1160h400v20h-400Z" style="fill: rgb(230, 82, 56);"></path><path d="M0,1160h400v20h-400Z" style="fill: rgb(230, 82, 56);"></path><path d="M0,1160h400v20h-400Z" style="fill: rgb(230, 82, 56);"></path><path d="M0,0h400v20h-400Z" style="fill: rgb(252, 165, 112);"></path><path d="M0,20h400v20h-400Z" style="fill: rgb(252, 165, 112);"></path><path d="M0,40h400v20h-400Z" style="fill: rgb(252, 165, 112);"></path><path d="M0,60h400v20h-400Z" style="fill: rgb(252, 165, 112);"></path><path d="M0,80h400v20h-400Z" style="fill: rgb(252, 165, 112);"></path><path d="M0,100h400v20h-400Z" style="fill: rgb(252, 165, 112);"></path><path d="M0,120h400v20h-400Z" style="fill: rgb(252, 165, 112);"></path><path d="M0,160h400v20h-400Z" style="fill: rgb(252, 165, 112);"></path><path d="M0,180h400v20h-400Z" style="fill: rgb(252, 165, 112);"></path><path d="M0,200h400v20h-400Z" style="fill: rgb(252, 165, 112);"></path><path d="M0,220h400v20h-400Z" style="fill: rgb(252, 165, 112);"></path><path d="M0,240h400v20h-400Z" style="fill: rgb(252, 165, 112);"></path><path d="M0,260h400v20h-400Z" style="fill: rgb(252, 165, 112);"></path><path d="M0,280h400v20h-400Z" style="fill: rgb(252, 165, 112);"></path><path d="M0,320h400v20h-400Z" style="fill: rgb(252, 165, 112);"></path><path d="M0,360h400v20h-400Z" style="fill: rgb(253, 198, 144);"></path><path d="M0,380h400v20h-400Z" style="fill: rgb(252, 165, 112);"></path><path d="M0,400h400v20h-400Z" style="fill: rgb(252, 165, 112);"></path><path d="M0,420h400v20h-400Z" style="fill: rgb(252, 165, 112);"></path><path d="M0,440h400v20h-400Z" style="fill: rgb(246, 125, 83);"></path><path d="M0,500h400v20h-400Z" style="fill: rgb(252, 165, 112);"></path><path d="M0,520h400v20h-400Z" style="fill: rgb(252, 165, 112);"></path><path d="M0,540h400v20h-400Z" style="fill: rgb(252, 165, 112);"></path><path d="M0,560h400v20h-400Z" style="fill: rgb(252, 165, 112);"></path><path d="M0,580h400v20h-400Z" style="fill: rgb(252, 165, 112);"></path><path d="M0,600h400v20h-400Z" style="fill: rgb(246, 125, 83);"></path><path d="M0,620h400v20h-400Z" style="fill: rgb(246, 125, 83);"></path><path d="M0,640h400v20h-400Z" style="fill: rgb(246, 125, 83);"></path><path d="M0,660h400v20h-400Z" style="fill: rgb(252, 165, 112);"></path><path d="M0,680h400v20h-400Z" style="fill: rgb(246, 125, 83);"></path><path d="M0,720h400v20h-400Z" style="fill: rgb(252, 165, 112);"></path><path d="M0,740h400v20h-400Z" style="fill: rgb(246, 125, 83);"></path><path d="M0,780h400v20h-400Z" style="fill: rgb(252, 165, 112);"></path><path d="M0,820h400v20h-400Z" style="fill: rgb(246, 125, 83);"></path><path d="M0,880h400v20h-400Z" style="fill: rgb(246, 125, 83);"></path><path d="M0,900h400v20h-400Z" style="fill: rgb(246, 125, 83);"></path><path d="M0,940h400v20h-400Z" style="fill: rgb(246, 125, 83);"></path><path d="M0,960h400v20h-400Z" style="fill: rgb(246, 125, 83);"></path><path d="M0,980h400v20h-400Z" style="fill: rgb(246, 125, 83);"></path><path d="M0,1040h400v20h-400Z" style="fill: rgb(246, 125, 83);"></path><path d="M0,1080h400v20h-400Z" style="fill: rgb(252, 165, 112);"></path><path d="M0,1120h400v20h-400Z" style="fill: rgb(246, 125, 83);"></path><path d="M0,1140h400v20h-400Z" style="fill: rgb(230, 82, 56);"></path></g><g class="mark-rect role-mark layer_1_marks"><path d="M200.68343195266272,142.5h1v15h-1Z" style="fill: #4c78a8; opacity: 0.7;"></path><path d="M-0.5,142.5h1v15h-1Z" style="fill: #4c78a8; opacity: 0.7;"></path><path d="M399.5,302.5h1v15h-1Z" style="fill: #4c78a8; opacity: 0.7;"></path><path d="M-0.5,302.5h1v15h-1Z" style="fill: #4c78a8; opacity: 0.7;"></path><path d="M172.2810650887574,342.5h1v15h-1Z" style="fill: #4c78a8; opacity: 0.7;"></path><path d="M-0.5,342.5h1v15h-1Z" style="fill: #4c78a8; opacity: 0.7;"></path><path d="M274.0562130177515,462.5h1v15h-1Z" style="fill: #4c78a8; opacity: 0.7;"></path><path d="M276.4230769230769,462.5h1v15h-1Z" style="fill: #4c78a8; opacity: 0.7;"></path><path d="M278.7899408284024,462.5h1v15h-1Z" style="fill: #4c78a8; opacity: 0.7;"></path><path d="M285.8905325443787,462.5h1v15h-1Z" style="fill: #4c78a8; opacity: 0.7;"></path><path d="M-0.5,462.5h1v15h-1Z" style="fill: #4c78a8; opacity: 0.7;"></path><path d="M238.55325443786984,482.5h1v15h-1Z" style="fill: #4c78a8; opacity: 0.7;"></path><path d="M-0.5,482.5h1v15h-1Z" style="fill: #4c78a8; opacity: 0.7;"></path><path d="M262.22189349112426,702.5h1v15h-1Z" style="fill: #4c78a8; opacity: 0.7;"></path><path d="M264.58875739644975,702.5h1v15h-1Z" style="fill: #4c78a8; opacity: 0.7;"></path><path d="M-0.5,702.5h1v15h-1Z" style="fill: #4c78a8; opacity: 0.7;"></path><path d="M259.85502958579883,762.5h1v15h-1Z" style="fill: #4c78a8; opacity: 0.7;"></path><path d="M311.9260355029586,762.5h1v15h-1Z" style="fill: #4c78a8; opacity: 0.7;"></path><path d="M314.29289940828403,762.5h1v15h-1Z" style="fill: #4c78a8; opacity: 0.7;"></path><path d="M-0.5,762.5h1v15h-1Z" style="fill: #4c78a8; opacity: 0.7;"></path><path d="M333.2278106508876,802.5h1v15h-1Z" style="fill: #4c78a8; opacity: 0.7;"></path><path d="M-0.5,802.5h1v15h-1Z" style="fill: #4c78a8; opacity: 0.7;"></path><path d="M184.1153846153846,842.5h1v15h-1Z" style="fill: #4c78a8; opacity: 0.7;"></path><path d="M-0.5,842.5h1v15h-1Z" style="fill: #4c78a8; opacity: 0.7;"></path><path d="M169.91420118343197,862.5h1v15h-1Z" style="fill: #4c78a8; opacity: 0.7;"></path><path d="M195.94970414201183,862.5h1v15h-1Z" style="fill: #4c78a8; opacity: 0.7;"></path><path d="M212.51775147928996,862.5h1v15h-1Z" style="fill: #4c78a8; opacity: 0.7;"></path><path d="M250.38757396449702,862.5h1v15h-1Z" style="fill: #4c78a8; opacity: 0.7;"></path><path d="M297.72485207100596,862.5h1v15h-1Z" style="fill: #4c78a8; opacity: 0.7;"></path><path d="M304.82544378698225,862.5h1v15h-1Z" style="fill: #4c78a8; opacity: 0.7;"></path><path d="M307.19230769230774,862.5h1v15h-1Z" style="fill: #4c78a8; opacity: 0.7;"></path><path d="M309.5591715976331,862.5h1v15h-1Z" style="fill: #4c78a8; opacity: 0.7;"></path><path d="M314.29289940828403,862.5h1v15h-1Z" style="fill: #4c78a8; opacity: 0.7;"></path><path d="M316.65976331360946,862.5h1v15h-1Z" style="fill: #4c78a8; opacity: 0.7;"></path><path d="M-0.5,862.5h1v15h-1Z" style="fill: #4c78a8; opacity: 0.7;"></path><path d="M262.22189349112426,922.5h1v15h-1Z" style="fill: #4c78a8; opacity: 0.7;"></path><path d="M264.58875739644975,922.5h1v15h-1Z" style="fill: #4c78a8; opacity: 0.7;"></path><path d="M-0.5,922.5h1v15h-1Z" style="fill: #4c78a8; opacity: 0.7;"></path><path d="M236.18639053254438,1002.5h1v15h-1Z" style="fill: #4c78a8; opacity: 0.7;"></path><path d="M245.65384615384616,1002.5h1v15h-1Z" style="fill: #4c78a8; opacity: 0.7;"></path><path d="M-0.5,1002.5h1v15h-1Z" style="fill: #4c78a8; opacity: 0.7;"></path><path d="M347.42899408284023,1022.5h1v15h-1Z" style="fill: #4c78a8; opacity: 0.7;"></path><path d="M-0.5,1022.5h1v15h-1Z" style="fill: #4c78a8; opacity: 0.7;"></path><path d="M181.74852071005918,1062.5h1v15h-1Z" style="fill: #4c78a8; opacity: 0.7;"></path><path d="M184.1153846153846,1062.5h1v15h-1Z" style="fill: #4c78a8; opacity: 0.7;"></path><path d="M276.4230769230769,1062.5h1v15h-1Z" style="fill: #4c78a8; opacity: 0.7;"></path><path d="M278.7899408284024,1062.5h1v15h-1Z" style="fill: #4c78a8; opacity: 0.7;"></path><path d="M-0.5,1062.5h1v15h-1Z" style="fill: #4c78a8; opacity: 0.7;"></path><path d="M219.61834319526628,1102.5h1v15h-1Z" style="fill: #4c78a8; opacity: 0.7;"></path><path d="M221.9852071005917,1102.5h1v15h-1Z" style="fill: #4c78a8; opacity: 0.7;"></path><path d="M224.35207100591714,1102.5h1v15h-1Z" style="fill: #4c78a8; opacity: 0.7;"></path><path d="M229.08579881656806,1102.5h1v15h-1Z" style="fill: #4c78a8; opacity: 0.7;"></path><path d="M302.4585798816568,1102.5h1v15h-1Z" style="fill: #4c78a8; opacity: 0.7;"></path><path d="M-0.5,1102.5h1v15h-1Z" style="fill: #4c78a8; opacity: 0.7;"></path><path d="M285.8905325443787,1162.5h1v15h-1Z" style="fill: #4c78a8; opacity: 0.7;"></path><path d="M288.2573964497042,1162.5h1v15h-1Z" style="fill: #4c78a8; opacity: 0.7;"></path><path d="M-0.5,1162.5h1v15h-1Z" style="fill: #4c78a8; opacity: 0.7;"></path><path d="M-0.5,2.5h1v15h-1Z" style="fill: #4c78a8; opacity: 0.7;"></path><path d="M-0.5,22.5h1v15h-1Z" style="fill: #4c78a8; opacity: 0.7;"></path><path d="M-0.5,42.5h1v15h-1Z" style="fill: #4c78a8; opacity: 0.7;"></path><path d="M-0.5,62.5h1v15h-1Z" style="fill: #4c78a8; opacity: 0.7;"></path><path d="M-0.5,82.5h1v15h-1Z" style="fill: #4c78a8; opacity: 0.7;"></path><path d="M-0.5,102.5h1v15h-1Z" style="fill: #4c78a8; opacity: 0.7;"></path><path d="M-0.5,122.5h1v15h-1Z" style="fill: #4c78a8; opacity: 0.7;"></path><path d="M-0.5,162.5h1v15h-1Z" style="fill: #4c78a8; opacity: 0.7;"></path><path d="M-0.5,182.5h1v15h-1Z" style="fill: #4c78a8; opacity: 0.7;"></path><path d="M-0.5,202.5h1v15h-1Z" style="fill: #4c78a8; opacity: 0.7;"></path><path d="M-0.5,222.5h1v15h-1Z" style="fill: #4c78a8; opacity: 0.7;"></path><path d="M-0.5,242.5h1v15h-1Z" style="fill: #4c78a8; opacity: 0.7;"></path><path d="M-0.5,262.5h1v15h-1Z" style="fill: #4c78a8; opacity: 0.7;"></path><path d="M-0.5,282.5h1v15h-1Z" style="fill: #4c78a8; opacity: 0.7;"></path><path d="M-0.5,322.5h1v15h-1Z" style="fill: #4c78a8; opacity: 0.7;"></path><path d="M-0.5,362.5h1v15h-1Z" style="fill: #4c78a8; opacity: 0.7;"></path><path d="M-0.5,382.5h1v15h-1Z" style="fill: #4c78a8; opacity: 0.7;"></path><path d="M-0.5,402.5h1v15h-1Z" style="fill: #4c78a8; opacity: 0.7;"></path><path d="M-0.5,422.5h1v15h-1Z" style="fill: #4c78a8; opacity: 0.7;"></path><path d="M-0.5,442.5h1v15h-1Z" style="fill: #4c78a8; opacity: 0.7;"></path><path d="M-0.5,502.5h1v15h-1Z" style="fill: #4c78a8; opacity: 0.7;"></path><path d="M-0.5,522.5h1v15h-1Z" style="fill: #4c78a8; opacity: 0.7;"></path><path d="M-0.5,542.5h1v15h-1Z" style="fill: #4c78a8; opacity: 0.7;"></path><path d="M-0.5,562.5h1v15h-1Z" style="fill: #4c78a8; opacity: 0.7;"></path><path d="M-0.5,582.5h1v15h-1Z" style="fill: #4c78a8; opacity: 0.7;"></path><path d="M-0.5,602.5h1v15h-1Z" style="fill: #4c78a8; opacity: 0.7;"></path><path d="M-0.5,622.5h1v15h-1Z" style="fill: #4c78a8; opacity: 0.7;"></path><path d="M-0.5,642.5h1v15h-1Z" style="fill: #4c78a8; opacity: 0.7;"></path><path d="M-0.5,662.5h1v15h-1Z" style="fill: #4c78a8; opacity: 0.7;"></path><path d="M-0.5,682.5h1v15h-1Z" style="fill: #4c78a8; opacity: 0.7;"></path><path d="M-0.5,722.5h1v15h-1Z" style="fill: #4c78a8; opacity: 0.7;"></path><path d="M-0.5,742.5h1v15h-1Z" style="fill: #4c78a8; opacity: 0.7;"></path><path d="M-0.5,782.5h1v15h-1Z" style="fill: #4c78a8; opacity: 0.7;"></path><path d="M-0.5,822.5h1v15h-1Z" style="fill: #4c78a8; opacity: 0.7;"></path><path d="M-0.5,882.5h1v15h-1Z" style="fill: #4c78a8; opacity: 0.7;"></path><path d="M-0.5,902.5h1v15h-1Z" style="fill: #4c78a8; opacity: 0.7;"></path><path d="M-0.5,942.5h1v15h-1Z" style="fill: #4c78a8; opacity: 0.7;"></path><path d="M-0.5,962.5h1v15h-1Z" style="fill: #4c78a8; opacity: 0.7;"></path><path d="M-0.5,982.5h1v15h-1Z" style="fill: #4c78a8; opacity: 0.7;"></path><path d="M-0.5,1042.5h1v15h-1Z" style="fill: #4c78a8; opacity: 0.7;"></path><path d="M-0.5,1082.5h1v15h-1Z" style="fill: #4c78a8; opacity: 0.7;"></path><path d="M-0.5,1122.5h1v15h-1Z" style="fill: #4c78a8; opacity: 0.7;"></path><path d="M-0.5,1142.5h1v15h-1Z" style="fill: #4c78a8; opacity: 0.7;"></path></g><g class="mark-group role-legend"><g transform="translate(418,0)"><path class="background" d="M0,0h90v216h-90Z" style="pointer-events: none; fill: none;"></path><g><g class="mark-group role-legend-entry"><g transform="translate(0,16)"><path class="background" d="M0,0h0v0h0Z" style="pointer-events: none; fill: none;"></path><g><g class="mark-rect role-legend-band" style="pointer-events: none;"><path d="M0,160h16v40h-16Z" style="fill: rgb(253, 198, 144); stroke: #ddd; stroke-width: 0; opacity: 1;"></path><path d="M0,120h16v40h-16Z" style="fill: rgb(252, 165, 112); stroke: #ddd; stroke-width: 0; opacity: 1;"></path><path d="M0,80h16v40h-16Z" style="fill: rgb(246, 125, 83); stroke: #ddd; stroke-width: 0; opacity: 1;"></path><path d="M0,39.99999999999999h16v40.00000000000001h-16Z" style="fill: rgb(230, 82, 56); stroke: #ddd; stroke-width: 0; opacity: 1;"></path><path d="M0,0h16v39.99999999999999h-16Z" style="fill: rgb(204, 36, 24); stroke: #ddd; stroke-width: 0; opacity: 1;"></path></g><g class="mark-text role-legend-label" style="pointer-events: none;"><text text-anchor="start" transform="translate(18,198)" style="font-family: sans-serif; font-size: 10px; fill: #000; opacity: 1;"></text><text text-anchor="start" transform="translate(18,163)" style="font-family: sans-serif; font-size: 10px; fill: #000; opacity: 1;">14</text><text text-anchor="start" transform="translate(18,123)" style="font-family: sans-serif; font-size: 10px; fill: #000; opacity: 1;">16</text><text text-anchor="start" transform="translate(18,83)" style="font-family: sans-serif; font-size: 10px; fill: #000; opacity: 1;">18</text><text text-anchor="start" transform="translate(18,42.99999999999999)" style="font-family: sans-serif; font-size: 10px; fill: #000; opacity: 1;">20</text></g></g></g></g><g class="mark-text role-legend-title" style="pointer-events: none;"><text text-anchor="start" transform="translate(0,9)" style="font-family: sans-serif; font-size: 11px; font-weight: bold; fill: #000; opacity: 1;">summer (binned)</text></g></g></g></g><g class="mark-text role-title" style="pointer-events: none;"><text text-anchor="middle" transform="translate(200,-7)" style="font-family: sans-serif; font-size: 13px; font-weight: bold; fill: #000; opacity: 1;">StGallen</text></g><g class="mark-group role-axis"><g transform="translate(0.5,1180.5)"><path class="background" d="M0,0h0v0h0Z" style="pointer-events: none; fill: none;"></path><g><g class="mark-rule role-axis-tick" style="pointer-events: none;"><line transform="translate(71,0)" x2="0" y2="5" style="fill: none; stroke: #888; stroke-width: 1; opacity: 1;"></line><line transform="translate(144,0)" x2="0" y2="5" style="fill: none; stroke: #888; stroke-width: 1; opacity: 1;"></line><line transform="translate(215,0)" x2="0" y2="5" style="fill: none; stroke: #888; stroke-width: 1; opacity: 1;"></line><line transform="translate(289,0)" x2="0" y2="5" style="fill: none; stroke: #888; stroke-width: 1; opacity: 1;"></line><line transform="translate(362,0)" x2="0" y2="5" style="fill: none; stroke: #888; stroke-width: 1; opacity: 1;"></line></g><g class="mark-text role-axis-label" style="pointer-events: none;"><text text-anchor="middle" transform="translate(71.00591715976331,15)" style="font-family: sans-serif; font-size: 10px; fill: #000; opacity: 1;">May</text><text text-anchor="middle" transform="translate(144.3786982248521,15)" style="font-family: sans-serif; font-size: 10px; fill: #000; opacity: 1;">June</text><text text-anchor="middle" transform="translate(215.3846153846154,15)" style="font-family: sans-serif; font-size: 10px; fill: #000; opacity: 1;">July</text><text text-anchor="middle" transform="translate(288.7573964497042,15)" style="font-family: sans-serif; font-size: 10px; fill: #000; opacity: 1;">August</text><text text-anchor="middle" transform="translate(362.1301775147929,15)" style="font-family: sans-serif; font-size: 10px; fill: #000; opacity: 1;">September</text></g><g class="mark-rule role-axis-domain" style="pointer-events: none;"><line transform="translate(0,0)" x2="400" y2="0" style="fill: none; stroke: #888; stroke-width: 1; opacity: 1;"></line></g><g class="mark-text role-axis-title" style="pointer-events: none;"><text text-anchor="middle" transform="translate(200,30)" style="font-family: sans-serif; font-size: 11px; font-weight: bold; fill: #000; opacity: 1;">Dayofyear</text></g></g></g></g><g class="mark-group role-axis"><g transform="translate(0.5,0.5)"><path class="background" d="M0,0h0v0h0Z" style="pointer-events: none; fill: none;"></path><g><g class="mark-rule role-axis-tick" style="pointer-events: none;"><line transform="translate(0,9)" x2="-5" y2="0" style="fill: none; stroke: #888; stroke-width: 1; opacity: 1;"></line><line transform="translate(0,29)" x2="-5" y2="0" style="fill: none; stroke: #888; stroke-width: 1; opacity: 1;"></line><line transform="translate(0,49)" x2="-5" y2="0" style="fill: none; stroke: #888; stroke-width: 1; opacity: 1;"></line><line transform="translate(0,69)" x2="-5" y2="0" style="fill: none; stroke: #888; stroke-width: 1; opacity: 1;"></line><line transform="translate(0,89)" x2="-5" y2="0" style="fill: none; stroke: #888; stroke-width: 1; opacity: 1;"></line><line transform="translate(0,109)" x2="-5" y2="0" style="fill: none; stroke: #888; stroke-width: 1; opacity: 1;"></line><line transform="translate(0,129)" x2="-5" y2="0" style="fill: none; stroke: #888; stroke-width: 1; opacity: 1;"></line><line transform="translate(0,149)" x2="-5" y2="0" style="fill: none; stroke: #888; stroke-width: 1; opacity: 1;"></line><line transform="translate(0,169)" x2="-5" y2="0" style="fill: none; stroke: #888; stroke-width: 1; opacity: 1;"></line><line transform="translate(0,189)" x2="-5" y2="0" style="fill: none; stroke: #888; stroke-width: 1; opacity: 1;"></line><line transform="translate(0,209)" x2="-5" y2="0" style="fill: none; stroke: #888; stroke-width: 1; opacity: 1;"></line><line transform="translate(0,229)" x2="-5" y2="0" style="fill: none; stroke: #888; stroke-width: 1; opacity: 1;"></line><line transform="translate(0,249)" x2="-5" y2="0" style="fill: none; stroke: #888; stroke-width: 1; opacity: 1;"></line><line transform="translate(0,269)" x2="-5" y2="0" style="fill: none; stroke: #888; stroke-width: 1; opacity: 1;"></line><line transform="translate(0,289)" x2="-5" y2="0" style="fill: none; stroke: #888; stroke-width: 1; opacity: 1;"></line><line transform="translate(0,309)" x2="-5" y2="0" style="fill: none; stroke: #888; stroke-width: 1; opacity: 1;"></line><line transform="translate(0,329)" x2="-5" y2="0" style="fill: none; stroke: #888; stroke-width: 1; opacity: 1;"></line><line transform="translate(0,349)" x2="-5" y2="0" style="fill: none; stroke: #888; stroke-width: 1; opacity: 1;"></line><line transform="translate(0,369)" x2="-5" y2="0" style="fill: none; stroke: #888; stroke-width: 1; opacity: 1;"></line><line transform="translate(0,389)" x2="-5" y2="0" style="fill: none; stroke: #888; stroke-width: 1; opacity: 1;"></line><line transform="translate(0,409)" x2="-5" y2="0" style="fill: none; stroke: #888; stroke-width: 1; opacity: 1;"></line><line transform="translate(0,429)" x2="-5" y2="0" style="fill: none; stroke: #888; stroke-width: 1; opacity: 1;"></line><line transform="translate(0,449)" x2="-5" y2="0" style="fill: none; stroke: #888; stroke-width: 1; opacity: 1;"></line><line transform="translate(0,469)" x2="-5" y2="0" style="fill: none; stroke: #888; stroke-width: 1; opacity: 1;"></line><line transform="translate(0,489)" x2="-5" y2="0" style="fill: none; stroke: #888; stroke-width: 1; opacity: 1;"></line><line transform="translate(0,509)" x2="-5" y2="0" style="fill: none; stroke: #888; stroke-width: 1; opacity: 1;"></line><line transform="translate(0,529)" x2="-5" y2="0" style="fill: none; stroke: #888; stroke-width: 1; opacity: 1;"></line><line transform="translate(0,549)" x2="-5" y2="0" style="fill: none; stroke: #888; stroke-width: 1; opacity: 1;"></line><line transform="translate(0,569)" x2="-5" y2="0" style="fill: none; stroke: #888; stroke-width: 1; opacity: 1;"></line><line transform="translate(0,589)" x2="-5" y2="0" style="fill: none; stroke: #888; stroke-width: 1; opacity: 1;"></line><line transform="translate(0,609)" x2="-5" y2="0" style="fill: none; stroke: #888; stroke-width: 1; opacity: 1;"></line><line transform="translate(0,629)" x2="-5" y2="0" style="fill: none; stroke: #888; stroke-width: 1; opacity: 1;"></line><line transform="translate(0,649)" x2="-5" y2="0" style="fill: none; stroke: #888; stroke-width: 1; opacity: 1;"></line><line transform="translate(0,669)" x2="-5" y2="0" style="fill: none; stroke: #888; stroke-width: 1; opacity: 1;"></line><line transform="translate(0,689)" x2="-5" y2="0" style="fill: none; stroke: #888; stroke-width: 1; opacity: 1;"></line><line transform="translate(0,709)" x2="-5" y2="0" style="fill: none; stroke: #888; stroke-width: 1; opacity: 1;"></line><line transform="translate(0,729)" x2="-5" y2="0" style="fill: none; stroke: #888; stroke-width: 1; opacity: 1;"></line><line transform="translate(0,749)" x2="-5" y2="0" style="fill: none; stroke: #888; stroke-width: 1; opacity: 1;"></line><line transform="translate(0,769)" x2="-5" y2="0" style="fill: none; stroke: #888; stroke-width: 1; opacity: 1;"></line><line transform="translate(0,789)" x2="-5" y2="0" style="fill: none; stroke: #888; stroke-width: 1; opacity: 1;"></line><line transform="translate(0,809)" x2="-5" y2="0" style="fill: none; stroke: #888; stroke-width: 1; opacity: 1;"></line><line transform="translate(0,829)" x2="-5" y2="0" style="fill: none; stroke: #888; stroke-width: 1; opacity: 1;"></line><line transform="translate(0,849)" x2="-5" y2="0" style="fill: none; stroke: #888; stroke-width: 1; opacity: 1;"></line><line transform="translate(0,869)" x2="-5" y2="0" style="fill: none; stroke: #888; stroke-width: 1; opacity: 1;"></line><line transform="translate(0,889)" x2="-5" y2="0" style="fill: none; stroke: #888; stroke-width: 1; opacity: 1;"></line><line transform="translate(0,909)" x2="-5" y2="0" style="fill: none; stroke: #888; stroke-width: 1; opacity: 1;"></line><line transform="translate(0,929)" x2="-5" y2="0" style="fill: none; stroke: #888; stroke-width: 1; opacity: 1;"></line><line transform="translate(0,949)" x2="-5" y2="0" style="fill: none; stroke: #888; stroke-width: 1; opacity: 1;"></line><line transform="translate(0,969)" x2="-5" y2="0" style="fill: none; stroke: #888; stroke-width: 1; opacity: 1;"></line><line transform="translate(0,989)" x2="-5" y2="0" style="fill: none; stroke: #888; stroke-width: 1; opacity: 1;"></line><line transform="translate(0,1009)" x2="-5" y2="0" style="fill: none; stroke: #888; stroke-width: 1; opacity: 1;"></line><line transform="translate(0,1029)" x2="-5" y2="0" style="fill: none; stroke: #888; stroke-width: 1; opacity: 1;"></line><line transform="translate(0,1049)" x2="-5" y2="0" style="fill: none; stroke: #888; stroke-width: 1; opacity: 1;"></line><line transform="translate(0,1069)" x2="-5" y2="0" style="fill: none; stroke: #888; stroke-width: 1; opacity: 1;"></line><line transform="translate(0,1089)" x2="-5" y2="0" style="fill: none; stroke: #888; stroke-width: 1; opacity: 1;"></line><line transform="translate(0,1109)" x2="-5" y2="0" style="fill: none; stroke: #888; stroke-width: 1; opacity: 1;"></line><line transform="translate(0,1129)" x2="-5" y2="0" style="fill: none; stroke: #888; stroke-width: 1; opacity: 1;"></line><line transform="translate(0,1149)" x2="-5" y2="0" style="fill: none; stroke: #888; stroke-width: 1; opacity: 1;"></line><line transform="translate(0,1169)" x2="-5" y2="0" style="fill: none; stroke: #888; stroke-width: 1; opacity: 1;"></line></g><g class="mark-text role-axis-label" style="pointer-events: none;"><text text-anchor="end" transform="translate(-7,12)" style="font-family: sans-serif; font-size: 10px; fill: #000; opacity: 1;">1960</text><text text-anchor="end" transform="translate(-7,32)" style="font-family: sans-serif; font-size: 10px; fill: #000; opacity: 1;">1961</text><text text-anchor="end" transform="translate(-7,52)" style="font-family: sans-serif; font-size: 10px; fill: #000; opacity: 1;">1962</text><text text-anchor="end" transform="translate(-7,72)" style="font-family: sans-serif; font-size: 10px; fill: #000; opacity: 1;">1963</text><text text-anchor="end" transform="translate(-7,92)" style="font-family: sans-serif; font-size: 10px; fill: #000; opacity: 1;">1964</text><text text-anchor="end" transform="translate(-7,112)" style="font-family: sans-serif; font-size: 10px; fill: #000; opacity: 1;">1965</text><text text-anchor="end" transform="translate(-7,132)" style="font-family: sans-serif; font-size: 10px; fill: #000; opacity: 1;">1966</text><text text-anchor="end" transform="translate(-7,152)" style="font-family: sans-serif; font-size: 10px; fill: #000; opacity: 1;">1967</text><text text-anchor="end" transform="translate(-7,172)" style="font-family: sans-serif; font-size: 10px; fill: #000; opacity: 1;">1968</text><text text-anchor="end" transform="translate(-7,192)" style="font-family: sans-serif; font-size: 10px; fill: #000; opacity: 1;">1969</text><text text-anchor="end" transform="translate(-7,212)" style="font-family: sans-serif; font-size: 10px; fill: #000; opacity: 1;">1970</text><text text-anchor="end" transform="translate(-7,232)" style="font-family: sans-serif; font-size: 10px; fill: #000; opacity: 1;">1971</text><text text-anchor="end" transform="translate(-7,252)" style="font-family: sans-serif; font-size: 10px; fill: #000; opacity: 1;">1972</text><text text-anchor="end" transform="translate(-7,272)" style="font-family: sans-serif; font-size: 10px; fill: #000; opacity: 1;">1973</text><text text-anchor="end" transform="translate(-7,292)" style="font-family: sans-serif; font-size: 10px; fill: #000; opacity: 1;">1974</text><text text-anchor="end" transform="translate(-7,312)" style="font-family: sans-serif; font-size: 10px; fill: #000; opacity: 1;">1975</text><text text-anchor="end" transform="translate(-7,332)" style="font-family: sans-serif; font-size: 10px; fill: #000; opacity: 1;">1976</text><text text-anchor="end" transform="translate(-7,352)" style="font-family: sans-serif; font-size: 10px; fill: #000; opacity: 1;">1977</text><text text-anchor="end" transform="translate(-7,372)" style="font-family: sans-serif; font-size: 10px; fill: #000; opacity: 1;">1978</text><text text-anchor="end" transform="translate(-7,392)" style="font-family: sans-serif; font-size: 10px; fill: #000; opacity: 1;">1979</text><text text-anchor="end" transform="translate(-7,412)" style="font-family: sans-serif; font-size: 10px; fill: #000; opacity: 1;">1980</text><text text-anchor="end" transform="translate(-7,432)" style="font-family: sans-serif; font-size: 10px; fill: #000; opacity: 1;">1981</text><text text-anchor="end" transform="translate(-7,452)" style="font-family: sans-serif; font-size: 10px; fill: #000; opacity: 1;">1982</text><text text-anchor="end" transform="translate(-7,472)" style="font-family: sans-serif; font-size: 10px; fill: #000; opacity: 1;">1983</text><text text-anchor="end" transform="translate(-7,492)" style="font-family: sans-serif; font-size: 10px; fill: #000; opacity: 1;">1984</text><text text-anchor="end" transform="translate(-7,512)" style="font-family: sans-serif; font-size: 10px; fill: #000; opacity: 1;">1985</text><text text-anchor="end" transform="translate(-7,532)" style="font-family: sans-serif; font-size: 10px; fill: #000; opacity: 1;">1986</text><text text-anchor="end" transform="translate(-7,552)" style="font-family: sans-serif; font-size: 10px; fill: #000; opacity: 1;">1987</text><text text-anchor="end" transform="translate(-7,572)" style="font-family: sans-serif; font-size: 10px; fill: #000; opacity: 1;">1988</text><text text-anchor="end" transform="translate(-7,592)" style="font-family: sans-serif; font-size: 10px; fill: #000; opacity: 1;">1989</text><text text-anchor="end" transform="translate(-7,612)" style="font-family: sans-serif; font-size: 10px; fill: #000; opacity: 1;">1990</text><text text-anchor="end" transform="translate(-7,632)" style="font-family: sans-serif; font-size: 10px; fill: #000; opacity: 1;">1991</text><text text-anchor="end" transform="translate(-7,652)" style="font-family: sans-serif; font-size: 10px; fill: #000; opacity: 1;">1992</text><text text-anchor="end" transform="translate(-7,672)" style="font-family: sans-serif; font-size: 10px; fill: #000; opacity: 1;">1993</text><text text-anchor="end" transform="translate(-7,692)" style="font-family: sans-serif; font-size: 10px; fill: #000; opacity: 1;">1994</text><text text-anchor="end" transform="translate(-7,712)" style="font-family: sans-serif; font-size: 10px; fill: #000; opacity: 1;">1995</text><text text-anchor="end" transform="translate(-7,732)" style="font-family: sans-serif; font-size: 10px; fill: #000; opacity: 1;">1996</text><text text-anchor="end" transform="translate(-7,752)" style="font-family: sans-serif; font-size: 10px; fill: #000; opacity: 1;">1997</text><text text-anchor="end" transform="translate(-7,772)" style="font-family: sans-serif; font-size: 10px; fill: #000; opacity: 1;">1998</text><text text-anchor="end" transform="translate(-7,792)" style="font-family: sans-serif; font-size: 10px; fill: #000; opacity: 1;">1999</text><text text-anchor="end" transform="translate(-7,812)" style="font-family: sans-serif; font-size: 10px; fill: #000; opacity: 1;">2000</text><text text-anchor="end" transform="translate(-7,832)" style="font-family: sans-serif; font-size: 10px; fill: #000; opacity: 1;">2001</text><text text-anchor="end" transform="translate(-7,852)" style="font-family: sans-serif; font-size: 10px; fill: #000; opacity: 1;">2002</text><text text-anchor="end" transform="translate(-7,872)" style="font-family: sans-serif; font-size: 10px; fill: #000; opacity: 1;">2003</text><text text-anchor="end" transform="translate(-7,892)" style="font-family: sans-serif; font-size: 10px; fill: #000; opacity: 1;">2004</text><text text-anchor="end" transform="translate(-7,912)" style="font-family: sans-serif; font-size: 10px; fill: #000; opacity: 1;">2005</text><text text-anchor="end" transform="translate(-7,932)" style="font-family: sans-serif; font-size: 10px; fill: #000; opacity: 1;">2006</text><text text-anchor="end" transform="translate(-7,952)" style="font-family: sans-serif; font-size: 10px; fill: #000; opacity: 1;">2007</text><text text-anchor="end" transform="translate(-7,972)" style="font-family: sans-serif; font-size: 10px; fill: #000; opacity: 1;">2008</text><text text-anchor="end" transform="translate(-7,992)" style="font-family: sans-serif; font-size: 10px; fill: #000; opacity: 1;">2009</text><text text-anchor="end" transform="translate(-7,1012)" style="font-family: sans-serif; font-size: 10px; fill: #000; opacity: 1;">2010</text><text text-anchor="end" transform="translate(-7,1032)" style="font-family: sans-serif; font-size: 10px; fill: #000; opacity: 1;">2011</text><text text-anchor="end" transform="translate(-7,1052)" style="font-family: sans-serif; font-size: 10px; fill: #000; opacity: 1;">2012</text><text text-anchor="end" transform="translate(-7,1072)" style="font-family: sans-serif; font-size: 10px; fill: #000; opacity: 1;">2013</text><text text-anchor="end" transform="translate(-7,1092)" style="font-family: sans-serif; font-size: 10px; fill: #000; opacity: 1;">2014</text><text text-anchor="end" transform="translate(-7,1112)" style="font-family: sans-serif; font-size: 10px; fill: #000; opacity: 1;">2015</text><text text-anchor="end" transform="translate(-7,1132)" style="font-family: sans-serif; font-size: 10px; fill: #000; opacity: 1;">2016</text><text text-anchor="end" transform="translate(-7,1152)" style="font-family: sans-serif; font-size: 10px; fill: #000; opacity: 1;">2017</text><text text-anchor="end" transform="translate(-7,1172)" style="font-family: sans-serif; font-size: 10px; fill: #000; opacity: 1;">2018</text></g><g class="mark-rule role-axis-domain" style="pointer-events: none;"><line transform="translate(0,0)" x2="0" y2="1180" style="fill: none; stroke: #888; stroke-width: 1; opacity: 1;"></line></g><g class="mark-text role-axis-title" style="pointer-events: none;"><text text-anchor="middle" transform="translate(-33.24609375,590) rotate(-90) translate(0,-2)" style="font-family: sans-serif; font-size: 11px; font-weight: bold; fill: #000; opacity: 1;">Year</text></g></g></g></g></g></g></g></g></svg>